<svg width="143" height="36" viewBox="0 0 143 36" fill="none" xmlns="http://www.w3.org/2000/svg">
<g clip-path="url(#clip0_315_5707)">
<g clip-path="url(#clip1_315_5707)">
<g clip-path="url(#clip2_315_5707)">
<path fill-rule="evenodd" clip-rule="evenodd" d="M74.6671 9.55599C76.1262 11.0542 76.9169 13.013 77.0351 15.4298C77.0743 16.3483 77.0936 17.1483 77.0936 17.827C77.0936 18.7259 77.0743 19.7149 77.0351 20.7943C76.9169 23.1915 76.1262 25.1403 74.6671 26.6369C73.2049 28.1357 71.0933 28.8864 68.331 28.8864C65.5688 28.8864 63.4571 28.1357 61.9964 26.6369C60.5358 25.1403 59.7467 23.1915 59.6285 20.7943C59.5877 19.7149 59.5684 18.7259 59.5684 17.827C59.5684 17.1483 59.5877 16.3483 59.6285 15.4298C59.7467 13.0326 60.5358 11.0791 61.9964 9.57081C63.4571 8.06252 65.5688 7.30811 68.331 7.30811C71.0933 7.30811 73.2049 8.05775 74.6671 9.55599ZM65.0024 12.2523C64.1615 13.0522 63.7039 14.1613 63.6244 15.5796C63.5852 16.5786 63.5658 17.4178 63.5658 18.0965C63.5658 18.7963 63.5852 19.646 63.6244 20.645C63.7039 22.0628 64.1615 23.1672 65.0024 23.9555C65.8396 24.7459 66.9499 25.1403 68.331 25.1403C69.7121 25.1403 70.8224 24.7459 71.6612 23.9555C72.5005 23.1672 72.9581 22.0628 73.0376 20.645C73.0784 20.1453 73.0977 19.2961 73.0977 18.0965C73.0977 16.9185 73.0784 16.0789 73.0376 15.5796C72.9581 14.1613 72.5005 13.0522 71.6612 12.2523C70.8224 11.4539 69.7121 11.0542 68.331 11.0542C66.9499 11.0542 65.8396 11.4539 65.0024 12.2523Z" fill="#090E35"/>
<path fill-rule="evenodd" clip-rule="evenodd" d="M109.627 18.0967C109.627 19.0761 109.606 19.8151 109.566 20.3149C109.409 22.9323 108.609 24.9647 107.169 26.4137C105.728 27.8611 103.626 28.5859 100.864 28.5859H94.0525C93.8349 28.5859 93.6482 28.507 93.4892 28.3461C93.3318 28.1867 93.2539 27.9961 93.2539 27.7775V8.41742C93.2539 8.19719 93.3318 8.00819 93.4892 7.84725C93.6482 7.68789 93.8349 7.60742 94.0525 7.60742H100.715C103.537 7.60742 105.678 8.33219 107.138 9.78119C108.6 11.2302 109.409 13.2626 109.566 15.88C109.606 16.3782 109.627 17.1188 109.627 18.0967ZM97.2498 11.3535V24.8398H100.715C102.274 24.8398 103.454 24.4305 104.253 23.6105C105.053 22.7925 105.491 21.6935 105.571 20.3149C105.61 19.8151 105.629 19.0761 105.629 18.0967C105.629 17.1188 105.61 16.3782 105.571 15.88C105.491 14.5014 105.042 13.4024 104.223 12.5823C103.404 11.7644 102.185 11.3535 100.567 11.3535H97.2498Z" fill="#090E35"/>
<path fill-rule="evenodd" clip-rule="evenodd" d="M20.113 27.5672L12.8617 8.62801C12.743 8.26801 12.6002 8.00859 12.4328 7.84712C12.2639 7.68777 12.0323 7.6073 11.7368 7.6073H8.48087C8.18383 7.6073 7.95164 7.68777 7.78481 7.84712C7.6159 8.00859 7.47313 8.26801 7.35442 8.62801L0.10312 27.5672L0.0722656 27.7774C0.0722656 27.996 0.151755 28.1866 0.309164 28.3459C0.468143 28.5069 0.654838 28.5858 0.872388 28.5858H3.00343C3.59594 28.5858 3.98031 28.3359 4.15864 27.8367L10.1088 12.2227L16.059 27.8367C16.2358 28.3359 16.6201 28.5858 17.2127 28.5858H19.3437C19.5613 28.5858 19.7495 28.5069 19.9069 28.3459C20.0643 28.1866 20.1438 27.996 20.1438 27.7774L20.113 27.5672Z" fill="#090E35"/>
<path fill-rule="evenodd" clip-rule="evenodd" d="M38.242 8.41742V20.704C38.242 23.2214 37.5114 25.2141 36.0508 26.6832C34.5902 28.1518 32.4884 28.8866 29.7455 28.8866C26.9817 28.8866 24.8799 28.1571 23.4402 26.698C21.999 25.239 21.2799 23.241 21.2799 20.704V8.41742C21.2799 8.19719 21.3578 8.00819 21.5152 7.84725C21.6742 7.68789 21.8609 7.60742 22.0785 7.60742H24.4773C24.6932 7.60742 24.8799 7.68789 25.0389 7.84725C25.1963 8.00819 25.2758 8.19719 25.2758 8.41742V20.5547C25.2758 22.1318 25.6701 23.2918 26.4587 24.0314C27.2494 24.7704 28.345 25.1405 29.7455 25.1405C31.1465 25.1405 32.2515 24.7704 33.0616 24.0314C33.8695 23.2918 34.2754 22.1318 34.2754 20.5547V8.41742C34.2754 8.19719 34.3533 8.00819 34.5123 7.84725C34.6697 7.68789 34.8564 7.60742 35.0739 7.60742H37.4418C37.6594 7.60742 37.8477 7.68789 38.0051 7.84725C38.1625 8.00819 38.242 8.19719 38.242 8.41742Z" fill="#090E35"/>
<path fill-rule="evenodd" clip-rule="evenodd" d="M57.8902 7.84725C58.0476 8.00819 58.1271 8.19719 58.1271 8.41742V10.5451C58.1271 10.7654 58.0476 10.9544 57.8902 11.1153C57.7328 11.2747 57.5445 11.3535 57.3285 11.3535H51.9986V27.7775C51.9986 27.9977 51.9206 28.1867 51.7617 28.3461C51.6043 28.507 51.4176 28.5859 51.2 28.5859H48.8028C48.5858 28.5859 48.397 28.507 48.2396 28.3461C48.0821 28.1867 48.0027 27.9977 48.0027 27.7775V11.3535H42.6743C42.4572 11.3535 42.2705 11.2747 42.1131 11.1153C41.9536 10.9544 41.8741 10.7654 41.8741 10.5451V8.41742C41.8741 8.19719 41.9536 8.00819 42.1131 7.84725C42.2705 7.68789 42.4572 7.60742 42.6743 7.60742H57.3285C57.5445 7.60742 57.7328 7.68789 57.8902 7.84725Z" fill="#090E35"/>
<path fill-rule="evenodd" clip-rule="evenodd" d="M127.744 13.4648C127.587 13.6141 127.389 13.6882 127.152 13.6882H125.079C124.764 13.6882 124.518 13.6289 124.339 13.5093C124.162 13.3891 124.003 13.2086 123.867 12.9703C123.531 12.4102 123.047 11.9597 122.416 11.6214C121.785 11.281 121.275 11.1121 120.189 11.1121C119.124 11.1121 118.401 11.3323 117.67 11.7707C116.942 12.2111 116.577 12.7993 116.577 13.5389C116.577 14.1382 116.749 14.6036 117.094 14.9318C117.438 15.2621 117.977 15.5369 118.707 15.7566C119.436 15.9768 120.282 16.2664 121.939 16.6259C124.326 17.1453 126.055 17.8748 127.121 18.8129C128.186 19.7526 128.718 21.0407 128.718 22.6792C128.718 23.8783 128.372 24.953 127.683 25.9012C126.991 26.8504 126 27.5932 124.707 28.1337C123.414 28.6727 122.075 28.9421 120.337 28.9421C118.857 28.9421 117.826 28.7023 116.544 28.2227C115.26 27.7446 114.225 27.0596 113.436 26.1707C112.646 25.2818 112.222 24.268 112.162 23.1292C112.142 22.8894 112.21 22.6935 112.369 22.5442C112.527 22.3949 112.725 22.3192 112.962 22.3192H115.034C115.349 22.3192 115.601 22.3801 115.787 22.4997C115.976 22.6199 116.13 22.7989 116.247 23.0387C116.583 23.6978 117.071 24.2219 117.712 24.611C118.354 25.0023 118.996 25.196 120.337 25.196C121.64 25.196 122.551 24.9874 123.42 24.5671C124.287 24.1478 124.722 23.5183 124.722 22.6792C124.722 22.199 124.555 21.8147 124.219 21.5256C123.883 21.2366 123.409 20.9967 122.799 20.8061C122.187 20.6171 121.434 20.372 120.189 20.0713C119.698 19.9728 119.23 19.822 118.441 19.6229C116.368 19.1036 114.874 18.3941 113.955 17.4952C113.038 16.5947 112.579 15.277 112.579 13.5389C112.579 12.3604 112.92 11.3011 113.6 10.363C114.281 9.42273 115.213 8.68844 116.398 8.15955C117.581 7.63014 118.73 7.36597 120.189 7.36597C121.848 7.36597 122.934 7.65026 124.148 8.22044C125.362 8.7885 126.284 9.5032 126.915 10.363C127.546 11.2222 127.892 12.0597 127.952 12.8798C127.97 13.1196 127.902 13.3134 127.744 13.4648Z" fill="#090E35"/>
<path fill-rule="evenodd" clip-rule="evenodd" d="M90.248 16.6408C90.407 16.8002 90.4849 16.9892 90.4849 17.2094V19.6378C90.4849 19.8581 90.407 20.0471 90.248 20.2064C90.0906 20.3658 89.9039 20.4462 89.6864 20.4462H80.6575C80.44 20.4462 80.2517 20.3658 80.0943 20.2064C79.9369 20.0471 79.8574 19.8581 79.8574 19.6378V17.2094C79.8574 16.9892 79.9369 16.8002 80.0943 16.6408C80.2517 16.4815 80.44 16.401 80.6575 16.401H89.6864C89.9039 16.401 90.0906 16.4815 90.248 16.6408Z" fill="#CE945B"/>
<path fill-rule="evenodd" clip-rule="evenodd" d="M73.4076 0.700029C73.5666 0.859382 73.6445 1.04838 73.6445 1.26862V3.69703C73.6445 3.91726 73.5666 4.10626 73.4076 4.26562C73.2502 4.42656 73.0635 4.50544 72.8459 4.50544H63.8171C63.6001 4.50544 63.4113 4.42656 63.2539 4.26562C63.0965 4.10626 63.017 3.91726 63.017 3.69703V1.26862C63.017 1.04838 63.0965 0.859382 63.2539 0.700029C63.4113 0.540676 63.6001 0.460205 63.8171 0.460205H72.8459C73.0635 0.460205 73.2502 0.540676 73.4076 0.700029Z" fill="#A4D3CB"/>
<path fill-rule="evenodd" clip-rule="evenodd" d="M141.877 16.9168C142.035 17.0762 142.114 17.2668 142.114 17.487V19.9138C142.114 20.1341 142.035 20.3247 141.877 20.484C141.72 20.6434 141.532 20.7238 141.316 20.7238H132.285C132.069 20.7238 131.881 20.6434 131.724 20.484C131.565 20.3247 131.487 20.1341 131.487 19.9138V17.487C131.487 17.2668 131.565 17.0762 131.724 16.9168C131.881 16.7575 132.069 16.677 132.285 16.677H141.316C141.532 16.677 141.72 16.7575 141.877 16.9168Z" fill="#CECBA2"/>
<path fill-rule="evenodd" clip-rule="evenodd" d="M125.516 31.9852C125.673 32.1445 125.753 32.3335 125.753 32.5538V34.9806C125.753 35.2008 125.673 35.3914 125.516 35.5508C125.358 35.7101 125.17 35.7906 124.954 35.7906H115.924C115.708 35.7906 115.52 35.7101 115.362 35.5508C115.203 35.3914 115.125 35.2008 115.125 34.9806V32.5538C115.125 32.3335 115.203 32.1445 115.362 31.9852C115.52 31.8242 115.708 31.7454 115.924 31.7454H124.954C125.17 31.7454 125.358 31.8242 125.516 31.9852Z" fill="#E2B3B1"/>
<path fill-rule="evenodd" clip-rule="evenodd" d="M34.8369 31.9852C34.9959 32.1445 35.0738 32.3335 35.0738 32.5538V34.9806C35.0738 35.2008 34.9959 35.3914 34.8369 35.5508C34.6795 35.7101 34.4928 35.7906 34.2752 35.7906H25.2464C25.0289 35.7906 24.8406 35.7101 24.6832 35.5508C24.5258 35.3914 24.4463 35.2008 24.4463 34.9806V32.5538C24.4463 32.3335 24.5258 32.1445 24.6832 31.9852C24.8406 31.8242 25.0289 31.7454 25.2464 31.7454H34.2752C34.4928 31.7454 34.6795 31.8242 34.8369 31.9852Z" fill="#A4D3CB"/>
<path fill-rule="evenodd" clip-rule="evenodd" d="M41.3874 14.794C41.5464 14.955 41.6243 15.144 41.6243 15.3642V17.791C41.6243 18.0113 41.5464 18.2018 41.3874 18.3612C41.23 18.5206 41.0418 18.601 40.8258 18.601H31.7954C31.5794 18.601 31.3911 18.5206 31.2337 18.3612C31.0763 18.2018 30.9968 18.0113 30.9968 17.791V15.3642C30.9968 15.144 31.0763 14.955 31.2337 14.794C31.3911 14.6347 31.5794 14.5558 31.7954 14.5558H40.8258C41.0418 14.5558 41.23 14.6347 41.3874 14.794Z" fill="#E2B3B1"/>
<path fill-rule="evenodd" clip-rule="evenodd" d="M51.9986 18.6996V27.8415C51.9986 28.0601 51.9207 28.2507 51.7617 28.4101C51.6043 28.571 51.4176 28.6499 51.2 28.6499H48.8028C48.5853 28.6499 48.397 28.571 48.2396 28.4101C48.0822 28.2507 48.0027 28.0601 48.0027 27.8415V18.6996H51.9986Z" fill="#CECBA2"/>
<path fill-rule="evenodd" clip-rule="evenodd" d="M96.4493 7.6073H95.1414H94.0521C93.8345 7.6073 93.6478 7.68618 93.4889 7.84712C93.3315 8.00648 93.2535 8.19706 93.2535 8.41571V17.5576H97.2494V9.91236V8.41571V7.6073H96.4493Z" fill="#A4D3CB"/>
<path fill-rule="evenodd" clip-rule="evenodd" d="M15.1855 18.8114C15.3429 18.9707 15.4209 19.1613 15.4209 19.3815V21.5108C15.4209 21.7311 15.3429 21.9217 15.1855 22.081C15.0281 22.2404 14.8399 22.3208 14.6223 22.3208H5.59348C5.37802 22.3208 5.18923 22.2404 5.03182 22.081C4.87284 21.9217 4.79492 21.7311 4.79492 21.5108V19.3815C4.79492 19.1613 4.87284 18.9707 5.03182 18.8114C5.18923 18.652 5.37802 18.5715 5.59348 18.5715H14.6223C14.8399 18.5715 15.0281 18.652 15.1855 18.8114Z" fill="#CE945B"/>
</g>
</g>
</g>
<defs>
<clipPath id="clip0_315_5707">
<rect width="143" height="36" fill="white"/>
</clipPath>
<clipPath id="clip1_315_5707">
<rect width="142.244" height="36" fill="white"/>
</clipPath>
<clipPath id="clip2_315_5707">
<rect width="142.042" height="35.3304" fill="white" transform="translate(0.0722656 0.460205)"/>
</clipPath>
</defs>
</svg>
